<svg width="1255" height="1260" xmlns="http://www.w3.org/2000/svg" xmlns:xlink="http://www.w3.org/1999/xlink" xml:space="preserve" overflow="hidden"><g transform="translate(-1572 -559)"><g><path d="M2643.36 745.646C2524.93 627.224 2367.47 562 2200 562 2032.53 562 1875.07 627.224 1756.64 745.646 1638.22 864.068 1573 1021.53 1573 1189 1573 1341.86 1627.33 1486.38 1726.9 1600.49 1736.4 1611.4 1746.32 1622.03 1756.64 1632.36 1759.07 1634.78 1761.52 1637.21 1764 1639.57 1777.77 1652.91 1792.03 1665.55 1806.76 1677.42 1806.83 1677.49 1806.88 1677.54 1806.95 1677.59 1917.99 1767.28 2055.25 1816 2200 1816 2367.47 1816 2524.93 1750.78 2643.36 1632.36 2652.17 1623.54 2660.68 1614.51 2668.88 1605.3 2771.11 1490.46 2827 1344.03 2827 1189 2827 1021.53 2761.78 864.068 2643.36 745.646ZM2667.35 1599.43C2648.8 1620.52 2628.86 1640.37 2607.64 1658.78 2567.41 1693.78 2522.62 1723.67 2474.32 1747.48 2457.38 1755.85 2440 1763.46 2422.23 1770.27 2353.19 1796.77 2278.26 1811.29 2200 1811.29 2124.48 1811.29 2052.07 1797.76 1985.05 1773.01 1957.54 1762.87 1930.96 1750.83 1905.43 1737.04 1901.68 1735.01 1897.96 1732.96 1894.25 1730.86 1874.79 1719.83 1855.95 1707.79 1837.87 1694.77 1811.97 1676.2 1787.55 1655.67 1764.85 1633.42 1752.12 1620.95 1739.96 1607.96 1728.34 1594.45 1634.5 1485.46 1577.71 1343.75 1577.71 1189 1577.71 845.873 1856.87 566.715 2200 566.715 2543.13 566.715 2822.29 845.873 2822.29 1189 2822.29 1346.13 2763.76 1489.82 2667.35 1599.43Z" fill="#D6DCE5" fill-rule="evenodd" fill-opacity="1"/></g></g></svg>